<?xml version="1.0" encoding="UTF-8" standalone="no"?>
<svg
   xmlns:dc="http://purl.org/dc/elements/1.1/"
   xmlns:cc="http://creativecommons.org/ns#"
   xmlns:rdf="http://www.w3.org/1999/02/22-rdf-syntax-ns#"
   xmlns:svg="http://www.w3.org/2000/svg"
   xmlns="http://www.w3.org/2000/svg"
   xmlns:sodipodi="http://sodipodi.sourceforge.net/DTD/sodipodi-0.dtd"
   xmlns:inkscape="http://www.inkscape.org/namespaces/inkscape"
   enable-background="new 0 0 40 40"
   version="1.1"
   viewBox="0 0 256 256"
   xml:space="preserve"
   id="svg45"
   sodipodi:docname="paypal_on_desk.svg"
   width="256"
   height="256"
   inkscape:version="0.92.2 (5c3e80d, 2017-08-06)"><metadata
     id="metadata51"><rdf:RDF><cc:Work
         rdf:about=""><dc:format>image/svg+xml</dc:format><dc:type
           rdf:resource="http://purl.org/dc/dcmitype/StillImage" /><dc:title></dc:title></cc:Work></rdf:RDF></metadata><defs
     id="defs49" /><sodipodi:namedview
     pagecolor="#ffffff"
     bordercolor="#666666"
     borderopacity="1"
     objecttolerance="10"
     gridtolerance="10"
     guidetolerance="10"
     inkscape:pageopacity="0"
     inkscape:pageshadow="2"
     inkscape:window-width="1414"
     inkscape:window-height="935"
     id="namedview47"
     showgrid="false"
     inkscape:zoom="1.0429825"
     inkscape:cx="27.150049"
     inkscape:cy="240.56991"
     inkscape:window-x="0"
     inkscape:window-y="27"
     inkscape:window-maximized="0"
     inkscape:current-layer="svg45" /><g
     id="E-Com"
     transform="matrix(9.6495827,0,0,9.6495827,-64.739407,-65.111437)"><g
       id="CVC_5_" /><g
       id="Mastercard_5_" /><g
       id="Visa_6_" /><g
       id="Discover" /><g
       id="Amex_3_" /><g
       id="Bitcoin_3_" /><g
       id="Google_Wallet_5_" /><g
       id="PayPal_3_"><g
         id="PayPal"><g
           id="g11"><path
             d="m 31.9,15.1 c -0.4,-0.7 -0.9,-1.3 -1.7,-1.7 -0.3,-0.2 -0.6,-0.3 -1,-0.5 0.2,0.6 0.4,1.3 0.4,2.1 0,2.4 -1,4.4 -3.1,5.9 -2,1.5 -4.9,2.2 -8.6,2.2 H 17 c -0.6,0 -1.3,0.5 -1.4,1.1 l -1,4.4 c -0.1,0.6 -0.8,1.1 -1.4,1.1 h -0.7 l -0.4,1.7 C 12,32 12.4,32.5 13,32.5 h 3 c 0.6,0 1.3,-0.5 1.4,-1.1 l 1,-4.4 c 0.1,-0.6 0.8,-1.1 1.4,-1.1 h 0.9 c 3.7,0 6.5,-0.7 8.6,-2.2 2,-1.5 3.1,-3.4 3.1,-5.9 0.1,-1.1 -0.1,-2 -0.5,-2.7 z"
             id="path9"
             inkscape:connector-curvature="0"
             style="clip-rule:evenodd;fill:#2c3e50;fill-rule:evenodd" /></g></g><g
         id="PayPal_1_"><g
           id="g16"><path
             d="M 27.2,10.5 C 26.8,9.8 26.3,9.2 25.5,8.8 24.8,8.3 24,8 23,7.8 22,7.6 20.8,7.5 19.5,7.5 H 13.2 C 12.6,7.5 11.9,8 11.8,8.6 L 7.5,26.7 c -0.1,0.6 0.3,1.1 0.9,1.1 h 3 c 0.6,0 1.3,-0.5 1.4,-1.1 l 1,-4.4 c 0.1,-0.6 0.8,-1.1 1.4,-1.1 h 0.9 c 3.7,0 6.5,-0.7 8.6,-2.2 2,-1.5 3.1,-3.4 3.1,-5.9 0,-1 -0.2,-1.9 -0.6,-2.6 z m -6.4,5.9 c -0.9,0.7 -2.2,1 -3.8,1 h -0.7 c -0.6,0 -1.1,-0.5 -0.9,-1.1 l 0.9,-3.8 c 0.1,-0.6 0.8,-1.1 1.4,-1.1 h 1 c 1.1,0 2,0.2 2.6,0.6 0.6,0.4 0.9,1 0.9,1.8 -0.1,1 -0.5,1.9 -1.4,2.6 z"
             id="path14"
             inkscape:connector-curvature="0"
             style="clip-rule:evenodd;fill:#3498d8;fill-rule:evenodd" /></g></g></g><g
       id="Square_Payment_1_" /><g
       id="Shop_5_" /><g
       id="Postage" /><g
       id="Package_7_" /><g
       id="Discount_3_" /><g
       id="Earth_3_" /><g
       id="Barcode_3_" /><g
       id="Cart_Plus_6_" /><g
       id="Cart_Minus_6_" /><g
       id="Cart_4_" /><g
       id="Receipt_5_" /><g
       id="Truck_9_" /><g
       id="Calculator_6_" /><g
       id="Euro_Symbol" /><g
       id="Cent_Symbol" /><g
       id="Dollar_Symbol" /><g
       id="Pound_Symbol" /><g
       id="Bank_5_" /><g
       id="Wallet_3_" /><g
       id="Coins_6_" /><g
       id="Bills_6_" /><g
       id="Dollar_Alt" /><g
       id="Dollar" /></g><g
     id="Lockup"
     transform="matrix(9.6495827,0,0,9.6495827,-64.739407,-65.111437)" /></svg>